PathFileType	4	(X/Y/Z)	3_coords_data.trc
DataRate	CameraRate	NumFrames	NumMarkers	Units	OrigDataRate	OrigDataStartFrame	OrigNumFrames
30.0	30.0	7	21	m	30.0	1	65
Frame#	Time	THUMB_TIP	THUMB_IP	THUMB_MCP	THUMB_CMC	INDEX_TIP	INDEX_DIP	INDEX_PIP	INDEX_MCP	MIDDLE_TIP	MIDDLE_DIP	MIDDLE_PIP	MIDDLE_MCP	RING_TIP	RING_DIP	RING_PIP	RING_MCP	PINKY_TIP	PINKY_DIP	PINKY_PIP	PINKY_MCP	WRIST
X1	Y1	Z1	X2	Y2	Z2	X3	Y3	Z3	X4	Y4	Z4	X5	Y5	Z5	X6	Y6	Z6	X7	Y7	Z7	X8	Y8	Z8	X9	Y9	Z9	X10	Y10	Z10	X11	Y11	Z11	X12	Y12	Z12	X13	Y13	Z13	X14	Y14	Z14	X15	Y15	Z15	X16	Y16	Z16	X17	Y17	Z17	X18	Y18	Z18	X19	Y19	Z19	X20	Y20	Z20	X21	Y21	Z21
0	0.0	-0.05447880172729492	-0.020572900772094727	0.9454869995117188	-0.05654840087890625	-0.04212269973754883	0.9589130249023438	-0.07448169708251953	-0.04112770080566406	0.9854420166015625	-0.09308529663085938	-0.0242716007232666	1.0055700073242186	-0.09216940307617187	-0.0372234992980957	0.9750679931640625	-0.07482969665527343	-0.03500270080566406	0.9657039794921874	-0.0750084991455078	-0.03657109832763672	0.9358560180664063	-0.11306400299072265	-0.043243698120117184	0.9535289916992188	-0.08144539642333984	-0.02177630043029785	0.9823920288085938	-0.07247239685058594	-0.017028799057006837	0.9740499877929687	-0.07373819732666016	-0.01242080020904541	0.9470430297851562	-0.11290200042724609	-0.021885900497436522	0.9450130004882813	0.0	0.0	0.0	-0.07878359985351563	-0.003496690034866333	0.98581298828125	-0.07512120056152344	0.004869110107421875	0.9631270141601562	-0.11544899749755859	-0.001681399941444397	0.952406982421875	0.0	0.0	0.0	-0.07936910247802734	0.00775259017944336	0.9947319946289063	-0.07817559814453125	0.01757979965209961	0.9791810302734375	-0.1090250015258789	0.015768799781799316	0.96402197265625	-0.11795899963378906	-0.0070367097854614254	1.02722998046875
1	0.03333333333333333	-0.055388099670410154	-0.019603599548339845	0.9469849853515625	-0.05707759857177734	-0.041610698699951175	0.9585679931640625	-0.07474749755859375	-0.043090999603271486	0.98389599609375	-0.09048999786376953	-0.022036100387573244	1.0061199951171875	-0.08873619842529297	-0.038520301818847656	0.9745919799804688	-0.0726897964477539	-0.035279800415039066	0.9621909790039063	-0.0757333984375	-0.03624430084228516	0.93727099609375	-0.11183799743652344	-0.04323350143432617	0.9524320068359375	-0.07930609893798828	-0.021216299057006834	0.9793319702148438	-0.07350630187988282	-0.01751259994506836	0.974781982421875	-0.07399490356445312	-0.012455499649047852	0.948343017578125	-0.11483000183105468	-0.02142009925842285	0.9479979858398437	-0.0864906005859375	-0.008218270301818847	0.9888829956054688	-0.0793051986694336	-0.0036192500591278073	0.9861320190429688	-0.07518740081787109	0.005170979976654053	0.9636619873046876	-0.11467299652099609	-0.001062010049819946	0.9543259887695312	-0.09498619842529298	0.00509119987487793	0.9998759765625	-0.08163240051269531	0.008750809669494628	0.9949769897460937	-0.07935150146484375	0.017403499603271484	0.9783460083007812	-0.10906800079345703	0.017361799240112306	0.96497802734375	-0.11866300201416016	-0.006097670078277588	1.0278699951171875
2	0.06666666666666667	-0.05662229919433594	-0.018142200469970702	0.9481329956054687	-0.05727330017089844	-0.04054999923706055	0.9587230224609375	-0.0747772979736328	-0.042757499694824216	0.9841099853515625	-0.09051699829101563	-0.021742799758911132	1.0061799926757813	-0.08896949768066406	-0.03845610046386719	0.974489990234375	-0.07288849639892578	-0.03512189865112305	0.96185400390625	-0.0760562973022461	-0.03612820053100586	0.9374509887695313	-0.11210700225830078	-0.04312229919433594	0.9526179809570312	-0.07936350250244141	-0.020810800552368162	0.9793709716796875	-0.073716796875	-0.01715369987487793	0.9747979736328125	-0.07414630126953126	-0.012299400329589844	0.9482369995117188	-0.11526699829101562	-0.021247400283813476	0.9482249755859375	-0.08599109649658203	-0.007825540065765382	0.9889829711914062	-0.07931340026855468	-0.0033371400833129877	0.98614697265625	-0.0751990966796875	0.005350379943847656	0.9636729736328125	-0.1147509994506836	-0.000936828017234802	0.9544199829101563	-0.09466089630126953	0.005174839973449707	1.00027001953125	-0.08156950378417968	0.008901670455932617	0.9950750122070312	-0.07940059661865234	0.0176564998626709	0.9783610229492188	-0.1090989990234375	0.017522300720214844	0.96506298828125	-0.1185790023803711	-0.005814949989318848	1.028300048828125
3	0.1	-0.057416698455810544	-0.016710199356079102	0.9488629760742188	-0.057435600280761716	-0.03919839859008789	0.9591320190429687	-0.07479460144042968	-0.04223109817504883	0.9842160034179688	-0.09039769744873047	-0.02143709945678711	1.006239990234375	-0.08927940368652344	-0.03815119934082031	0.9741420288085938	-0.07301190185546876	-0.03486550140380859	0.9617080078125	-0.07615670013427735	-0.03577470016479492	0.9374019775390625	-0.11220700073242187	-0.042826900482177736	0.952656982421875	-0.07927749633789062	-0.020511699676513673	0.9793729858398438	-0.07384999847412109	-0.016695499420166016	0.9747659912109375	-0.07423819732666016	-0.011936699867248535	0.948052978515625	-0.11494000244140624	-0.02095159912109375	0.9481799926757812	-0.08566239929199218	-0.007555079936981201	0.9883179931640625	-0.07930829620361328	-0.003047300100326538	0.9862009887695312	-0.07528520202636718	0.005675519943237305	0.9635659790039063	-0.11481500244140624	-0.0006184930205345151	0.9546430053710937	-0.0944468002319336	0.005440130233764649	1.0001300048828126	-0.0813949966430664	0.009161339759826661	0.9951220092773437	-0.07929820251464843	0.017902099609375	0.978677001953125	-0.10901100158691407	0.01779010009765625	0.96522998046875	-0.11833899688720703	-0.0055841999053955075	1.028300048828125
4	0.13333333333333333	-0.05777500152587891	-0.01559529972076416	0.949593017578125	-0.057387199401855465	-0.03826530075073242	0.959156982421875	-0.07480840301513672	-0.041823200225830075	0.9843419799804688	-0.09059269714355468	-0.021122900009155274	1.0065399780273439	-0.08941909790039063	-0.03795059967041016	0.9735599975585938	-0.0729728012084961	-0.03438150024414063	0.9615709838867188	-0.07610340118408203	-0.03527970123291015	0.937447021484375	-0.11215299987792969	-0.04240439987182617	0.952739990234375	-0.07917369842529297	-0.020043399810791014	0.9795239868164063	-0.0737083969116211	-0.016312599182128906	0.9747899780273438	-0.07410199737548828	-0.011453200340270996	0.948010986328125	-0.11511199951171874	-0.020566999435424806	0.9483619995117187	-0.08598979949951172	-0.006986979961395264	0.988989013671875	-0.07926750183105469	-0.0026829800605773922	0.9863270263671875	-0.07497540283203125	0.006002049922943115	0.9637990112304687	-0.11463300323486328	-0.00021677400171756702	0.954760009765625	-0.09444000244140625	0.0060096697807312015	1.0005599975585937	-0.08149939727783204	0.009445560455322266	0.9954459838867188	-0.07919270324707031	0.018236000061035155	0.9788380126953125	-0.10890299987792969	0.018138200759887695	0.9653980102539063	-0.11872499847412109	-0.005172689914703369	1.0280899658203124
5	0.16666666666666666	-0.057860198974609374	-0.014764100074768067	0.9503109741210938	-0.05733409881591797	-0.037602001190185544	0.9595239868164063	-0.074685302734375	-0.04139039993286133	0.984552978515625	-0.09048239898681641	-0.020825000762939454	1.0069099731445312	-0.08918250274658203	-0.03752019882202148	0.9738690185546875	-0.07289710235595703	-0.03408000183105469	0.961666015625	-0.07596730041503906	-0.03484280014038086	0.9375889892578125	-0.11200099945068359	-0.04204090118408203	0.9528770141601562	-0.07888059997558594	-0.01973819923400879	0.9795780029296876	-0.07364029693603516	-0.015943499565124513	0.974968017578125	-0.07382039642333985	-0.011074299812316895	0.94814599609375	-0.11464900207519531	-0.020144399642944337	0.94847998046875	-0.08598829650878906	-0.006852980136871338	0.9893980102539063	-0.07918119812011719	-0.002375930070877075	0.9865960083007812	-0.07494270324707031	0.0064391398429870595	0.9640460205078125	-0.11443499755859375	0.00011101999878883301	0.9548460083007813	-0.09430249786376953	0.0059181199073791504	1.00047998046875	-0.08135320281982422	0.009771140098571777	0.9956079711914062	-0.0790177001953125	0.018614799499511718	0.9791950073242187	-0.1086510009765625	0.018480600357055663	0.965573974609375	-0.11871299743652344	-0.00507075023651123	1.0286300048828125
6	0.2	-0.05789619827270508	-0.01444029998779297	0.9510330200195313	-0.05715679931640625	-0.03733290100097656	0.9597550048828125	-0.07467440032958984	-0.041164199829101564	0.9848679809570312	-0.0905344009399414	-0.02065909957885742	1.0068300170898437	-0.08910469818115234	-0.03718239974975586	0.973969970703125	-0.072793701171875	-0.03380789947509766	0.9619600219726563	-0.07585800170898438	-0.0345452995300293	0.9378140258789063	-0.11189399719238281	-0.041810600280761716	0.9529390258789062	-0.07912200164794922	-0.019426099777221678	0.9801110229492187	-0.0735636978149414	-0.015657099723815918	0.9753519897460937	-0.07361419677734375	-0.01081190013885498	0.9485449829101562	-0.1145780029296875	-0.019905799865722655	0.948656982421875	-0.0852615966796875	-0.006606200218200684	0.9894210205078126	-0.079091796875	-0.002195110082626342	0.9868839721679687	-0.0746698989868164	0.006633959770202637	0.9643599853515625	-0.11428399658203126	0.00029846099019050604	0.9549879760742187	-0.094043701171875	0.006255300045013428	1.00075	-0.08125350189208984	0.009881250381469727	0.995801025390625	-0.07891010284423829	0.018844800949096678	0.9794219970703125	-0.10839199829101563	0.018704799652099608	0.9657969970703125	-0.11889600372314453	-0.0048130002021789554	1.02856005859375
